<svg xmlns="http://www.w3.org/2000/svg" viewBox="0 0 900 420" role="img" aria-labelledby="title desc">
  <title id="title">Identity security illustration</title>
  <desc id="desc">A secure identity card surrounded by verification signals.</desc>
  <defs><linearGradient id="bg" x1="0" x2="1" y1="0" y2="1"><stop stop-color="#111b3c"/><stop offset="1" stop-color="#092f40"/></linearGradient></defs>
  <rect width="900" height="420" fill="url(#bg)"/>
  <path d="M0 72h900M0 348h900M85 0v420M815 0v420" stroke="#a477ff" stroke-opacity=".14"/>
  <rect x="170" y="92" width="420" height="236" rx="20" fill="#081426" stroke="#a477ff" stroke-opacity=".7" stroke-width="3"/>
  <circle cx="280" cy="190" r="48" fill="#182d4d" stroke="#5cecff" stroke-width="3"/><circle cx="280" cy="178" r="16" fill="#5cecff"/><path d="M246 224c12-25 56-25 68 0" fill="none" stroke="#5cecff" stroke-width="8" stroke-linecap="round"/>
  <rect x="365" y="156" width="150" height="13" rx="6" fill="#eaf4ff" fill-opacity=".7"/><rect x="365" y="190" width="112" height="10" rx="5" fill="#aebdd4" fill-opacity=".45"/><rect x="365" y="218" width="138" height="10" rx="5" fill="#aebdd4" fill-opacity=".3"/>
  <path d="M660 108h92M660 140h54M660 172h112M660 204h70M660 236h98M660 268h48" stroke="#5cecff" stroke-opacity=".55" stroke-width="6" stroke-linecap="round"/>
  <circle cx="116" cy="115" r="9" fill="#ffb020"/><circle cx="116" cy="210" r="9" fill="#00ffa3"/><circle cx="116" cy="305" r="9" fill="#ff3860"/>
</svg>
